<?xml version="1.0" encoding="utf-8"?>
<!-- Generator: Harald Székely @ Vexcash AG - 2017-04-25 -->
<!DOCTYPE svg PUBLIC "-//W3C//DTD SVG 1.1//EN" "http://www.w3.org/Graphics/SVG/1.1/DTD/svg11.dtd">

<svg version="1.1" id="Web-ID-Solutions-Logo" xmlns="http://www.w3.org/2000/svg" xmlns:xlink="http://www.w3.org/1999/xlink" x="0px" y="0px" viewBox="0 0 512 512" xml:space="preserve">
	<g id="Icon-Container">
		<path id="Background" fill="#2dbedc" d="M101.6,37.8c0,0-65.8,0-65.8,65.8v306.9c0,0,0,65.8,65.8,65.8h306.9c0,0,65.8,0,65.8-65.8
			V103.5c0,0,0-65.8-65.8-65.8C408.5,37.8,101.6,37.8,101.6,37.8z"/>
		<g>
			<defs>
				<path id="Background1" d="M101.6,37.8c0,0-65.8,0-65.8,65.8v306.9c0,0,0,65.8,65.8,65.8h306.9c0,0,65.8,0,65.8-65.8V103.5
					c0,0,0-65.8-65.8-65.8C408.5,37.8,101.6,37.8,101.6,37.8z"/>
			</defs>
			<clipPath id="Clipper">
				<use xlink:href="#Background" overflow="visible"/>
			</clipPath>
			<g id="Fingerprints" clip-path="url(#Clipper)">
				<path fill="#fff" d="M315.2,82.2c5.8,2.2,13.3,6.4,10.5,11.6c-2.1,3.8-9.6,2.4-14.9,0.2c-4.6-2-12.9-6.8-11-11.2
					c1.4-3.2,6.6-3.1,8.4-2.9C310.7,80.3,312.4,81.2,315.2,82.2"/>
				<path fill="#fff" d="M381.8,152c-5-1.1-8.2-5.1-11.6-8.8c-3.3-3.6-12.1-12.8-3-14.7c6.2-1.3,16.2,10.2,17.6,15.7
					C385.6,147.3,384.7,150.6,381.8,152"/>
				<path fill="#fff" d="M260.3,113.6c0.7,4.3,5.1,8,8.4,11.6c3.4,3.8,7.6,7.3,12.1,10.5c9.5,6.7,20.9,11.8,31.3,18
					c9.3,5.6,17.9,13,25.9,20.4c15.7,14.5,26.1,28.2,29.3,46.3c0.7,3.8,1.6,9.7-4.1,11.3c-7.9-5.4-9.4-15.1-14.3-22.2
					c-12.2-17.8-26.4-36.3-50.8-49.9c-13.3-7.4-29.4-13.1-37.9-24.5c-3.8-5.2-8-11-15.8-14.1c-6.4-2.5-14.2-2.5-21-2.7
					c-14.5-0.3-27.8,3.2-40.8,5.6c-7.2-1.8-14.8-1.4-22-1.5c-3.5,0-9.4,0.6-10.2-3.6c-0.6-3.5,6.1-8.1,7.2-8.6
					c10.1-4.7,24.3-0.8,37.6-2.1c2.4-0.2,4.8-1.1,7.4-1.7c12.1-2.4,25.4-1.5,37.7-4.2c11.6-2.5,22-4.9,36.7,4.3
					c5.2,3.3,9,7.9,13.9,11.7c15.3,12,34.3,19.2,48.8,30.6c10,7.8,19,17,26.2,26.4c6.3,8.2,11.9,15.9,17.1,24.7
					c6,10.2,9.1,20.1,7,32.9c-1,5.7-4.5,11.3-4.1,17.8c0.3,5.7,3.7,11.4,4.9,17c1.2,5.7,1.4,11.6,1.6,18.1c0.2,5.8,0.6,13.1-0.9,18.8
					c-1.2,4.6-6.4,19.1-10.8,17.5c-2.6-1-2.2-6.6-2.2-9c0.4-16.9,0.8-31.7-3.9-46.8c-1.8-5.9-4.2-12.2-4.6-17.6
					c-0.5-7.2,5.8-17.5,5.9-24.5c0.1-11.2-6.9-21-13.6-30.8c-12.1-17.9-31.3-38.3-54.5-50.1c-3.7-1.9-7.5-3.2-11-5.4
					c-10.4-6.4-16.9-14.8-26.4-21.4C267.9,114.7,264.1,111.3,260.3,113.6"/>
				<path fill="#fff" d="M334.3,116.3c1,3.4,4.6,5.7,7.3,7.9c9,7.3,18.1,13.4,25.5,21.9c4.6,5.3,9.4,10.4,13.6,15.7
					c4,5.1,7.9,10.9,9.8,16.8c0.8,2.4,2.6,10.7-1.8,12.1c-3.5,1.1-7.8-6.3-8.9-8.1c-1.8-2.9-4.2-7.5-6.1-10.1
					c-5.2-7.1-10.7-13.6-15.5-19.1c-5.7-6.5-13.7-11.8-21.3-17.3c-3.9-2.8-8.1-5.4-12.2-7.7c-10-5.7-23.2-11.1-31.8-18.3
					c-5.4-4.5-9.7-10.3-16.3-13.7c-4.8-2.4-10.9-3.8-15.6-4.4c-8.3-0.9-16.2,0.5-24.2-7.1c-2-6.9,5.6-8.7,10.5-9
					c11.9-0.7,25.8,3,39.7,9.7c7.3,3.5,13.8,9.4,22.5,13.1c11.5,4.9,21.6,0.7,33.2,5.6c5.5,2.3,14.1,7.9,15.8,13.4
					c0.4,1.1,0.7,4.8-0.6,5.9c-2.6,1.9-7.1-2.8-9.8-4.4C343.2,116.4,337.7,114.5,334.3,116.3"/>
				<path fill="#fff" d="M229.2,89.2c1.6,3.8-3.5,7.8-7.1,8.4c-2.2,0.3-4.9-0.5-7.8-0.3c-4.4,0.3-10.3,1.3-14.8,1.9
					c-3.3,0.5-8.1,1.9-11.1-1.3c-5.8-6.2,9.7-10.7,12.9-11.5c4.4-1.1,11.1-2.1,14.8-1.9C220.5,84.6,225.6,85.8,229.2,89.2"/>
				<path fill="#fff" d="M239.9,138.8c-10.3-1.2-20.6-0.7-30.6,0.6c-9.8,1.3-19.7,2.8-28.1,7.7c-5.4,3.2-11.1,8.1-17.4,9.6
					c-6.2,1.5-13,1.2-19.6,2.6c-12.8,2.6-23.8,5.9-36.4,12.4c-5.4,2.7-13.6,9-18.1,6.4c-6.7-3.8,1.8-11.1,4.9-13.3
					c9.6-6.9,21-10.1,32.7-13.3c5.4-1.5,11.3-2.7,17.2-3.8c5.8-1.1,12.2-0.2,17.5-2.6c6.8-3,12.5-8.6,19.2-11.7
					c9-4.1,19.4-5.6,28.9-6.6c4.9-0.5,10.2-0.7,15.4-0.6c5.7,0.1,13.5,0,19.4,3.2c3.8,2.1,7.6,6.3,6.4,8.9
					C249.5,142.1,244.1,139.6,239.9,138.8"/>
				<path fill="#fff" d="M307.9,468.7c0.9-4.7,4.7-8.1,7.4-11.6c3-3.9,6.2-7.7,9.2-11.7c19.1-25.4,30.4-59.4,31.8-84.4
					c1-18.1,2.7-34.9,1.5-51.9c-0.5-7.8-2.1-16.3-3.8-24.4c-1.8-8.3-2.2-16.7-4.3-24.3c-4.1-15.4-12.9-30.6-22-44.5
					c-9.1-14-20-28.7-38.6-39c-9.4-5.2-19.8-8.6-29.6-12c-20.2-7-35.6-8.7-52.7-4.7c-3.4,0.8-8.2,2.1-12.1,2.7
					c-3.9,0.6-10.2,1.4-12-2.1c-2.1-4.2,3.7-8.1,7.7-9.4c4.4-1.5,8.9-1.6,12.6-2.4c4.4-0.9,8.4-1.9,12.6-2.4
					c12.8-1.3,25.8-1.2,40.5,2.8c9.9,2.7,19.9,7.5,30.4,12.4c27.3,12.6,45.6,38.8,58.2,58.2c6.9,10.7,12.3,21.5,16.1,33.2
					c3.8,11.6,7.3,22.9,8.4,35.4c1.1,12.4,3.3,24.7,3.4,37.2c0,6.3-1.1,13-1.7,19.8c-0.5,6.4-0.4,12.9-0.7,19.2
					c-0.7,12.4-6.3,28.4-11.1,41.8c-3.7,10.4-8.3,21.2-14.5,31.7c-6,10.4-12.5,16.8-20.4,24.5C319.9,467.7,314.7,474,307.9,468.7"/>
				<path fill="#fff" d="M283.7,184.3c9.4,4.3,19.8,12.2,26.2,18.5c11.6,11.3,20.4,28.2,25.5,42.2c2.9,7.9,5.2,15.4,7.4,22.8
					c2.3,7.7,2.9,15.3,4.3,23.6c2.7,16.5,3.4,31.6,2.9,49.4c-0.2,8.4-1.8,17-3.3,26.2c-1.3,8.3-3.5,18.3-6.4,27
					c-3.9,11.4-11.8,25.9-17.4,35.4c-4,6.8-6.2,10.7-10.9,16.4c-2.7,3.2-9.3,9.7-13.7,5.2c-2.4-2.5,1.4-8.9,3.2-12.1
					c2.8-4.7,5.4-8.2,7.3-11.4c5.4-9.1,8.1-16.4,12.3-25.6c8.7-18.7,11-33.4,12.8-47.8c0.9-7.5,1.4-15,1.3-22.4
					c0-7.4-1.1-14.2-1.7-21.2c-2-22.1-4.7-41.7-13.2-61.3c-2.7-6.2-6.4-12.1-10.3-18.5c-7.8-12.6-17.1-24.3-32.9-33.3
					c-14.1-8-32.3-14.1-46.8-15.4c-7.7-0.7-14.6,0-21.5,0.9c-3.5,0.4-7,0.6-10.4,1.5c-5.2,1.4-10.3,2.9-16.4,2.5
					c-6.8-0.5-13.4-3.2-20.6-4.2c-7.1-1-12.2,0.2-18.7,1.6c-11.9,2.6-23.4,6.6-34.8,11.9c-5.2,2.4-11,5.3-16.5,8.6
					c-10.8,6.6-20.5,14.5-31,23.8c-3.5,3.1-11.9,11.8-16.4,9c-3.6-2.2-0.4-8.4,2.4-11.9c7-8.6,12.8-14.3,20.6-20.3
					c3.9-3,8.4-5.7,12.3-8.4c8.3-5.8,16.9-10.2,25.4-14.3c4.3-2.1,9.1-3.3,13.3-5.1c12.9-5.4,27-9.5,41.8-9.6c5.6,0,10.7,1.3,15.8,2
					c5.3,0.8,10,0.9,15.2,0.7c9.4-0.5,18.5-3.6,28.6-4c4.8-0.2,9.9,0.4,15.2,0.7c10.6,0.5,20.7,3.9,32,9.4
					C271.8,179.4,277.8,181.6,283.7,184.3"/>
				<path fill="#fff" d="M165.9,128.2c5.6,3.1-2.6,9.7-6.3,11.5c-4.6,2.3-9.3,2.1-16.4,2.5c-3.6,0.2-6.8,1.4-10.8,2.3
					c-3.2,0.7-9.5,1.3-11.2-1c-2.1-3,3.4-7.6,5.9-9.3c7.6-5.2,13.7-6.2,23.3-6.5C155.4,127.5,161.6,125.8,165.9,128.2"/>
				<path fill="#fff" d="M205.2,210c8.8,2.9,18.2,2.9,27,5.8c9.9,3.3,19.4,9.4,27.9,15.9c15.5,11.9,25.4,26.2,31.6,41.2
					c9,21.7,14.6,46.4,9,73.9c-1.9,9.3-6.1,20.9-12.1,27.8c-2,2.3-4.5,4.2-6.5,6.6c-6.2,7.1-12.5,15.9-16.9,23.9
					c-10.9,19.6-22,35.7-35.6,48.6c-4.3,4.1-9.1,7.4-13.7,11.1c-17.6,14.3-38.5,23.2-61.6,22.4c-11.1-0.4-24.4-5.1-36.1-6.1
					c-12.1-1-23,2.4-33.8,2c-12.5-0.4-23.9-5.1-37.7-11c-8.9-3.8-4-3.2-12-3.4c-3.2-0.1-9.6-17.1,4-12.9c10.7,2.6,20.9,8.6,30,9.8
					c18.5,2.5,36,0.3,53.7-1.3c8.2-0.8,17.3-2.8,25.4-5.7c16.1-5.8,31.5-14.2,45.8-26.4c7.2-6.2,14.7-12.9,20.8-19.5
					c3.4-3.7,7.8-9.9,11.7-15.9c4.9-7.3,9.7-17.9,16.7-10.3c6.3,6.9-8,22.8-12.5,28.6c-7.1,9-15.3,17.3-22.1,24
					c-7.7,7.6-15.1,14.4-23.6,19.4c-4.1,2.4-8.6,4.4-13,6.3c-4.1,1.9-9.1,2.9-12.7,6.5c4.7,2.1,8.4,1.3,12.4,0.6
					c5.2-0.8,11.1-2.8,16.1-5.1c2.1-0.9,4-2.6,6.1-3.7c2.2-1.1,4.4-1.8,6.3-2.9c13.1-7.9,24.2-20.8,35-34.1
					c5.8-7.2,10.4-15.3,14.9-23.9c8.3-15.9,22.7-29.6,29.6-44.9c7.3-16.5,6.7-32.9,5.7-47.3c-0.8-10.9-3.4-19.5-6.9-29.1
					c-2.5-6.7-4.8-12.7-9.5-19.4c-8.1-11.4-22-23-40.1-28.8c-11.1-3.5-21.3-6.4-31.9-6.3c-3.9,0.1-8.5,0.9-12.9,1.6
					c-4.1,0.6-8.7,0.9-12.6,1.7c-4,0.8-8,2.6-12,3.8c-4,1.2-8.2,2.1-12.1,3.4c-4.1,1.4-8.1,2.7-12.1,3.4c-4.2,0.7-8,2.3-12.1,3.3
					c-8,2.2-15.2,7.3-22.3,12.5c-7.1,5.1-13.8,11.3-21.1,17.3c-3.5,2.9-6.7,6.1-10.4,8.7c-14.2,10.1-20.2,17-36.1,25.5
					c-3.2,1.7-5.9-16.2,3.6-21.8c13.8-9.6,27-18,40.5-30.2c9.2-8.4,17.4-15.5,26.6-21.3c8.8-5.6,19.5-9.1,29.4-12.2
					c19.7-6.2,41-13.5,59.4-22.8c10.4-5.3,19.2-8.5,30.9-7.7c8.6,0.6,17.1,0.7,26.3,3.7c8.2,2.7,31.3,9.8,24.7,20.1
					c-4.3,6.6-14.8,0.1-23.3-3.5c-11-4.7-23.2-7.2-32.7-6.7C214,205.4,208.1,205.2,205.2,210"/>
				<path fill="#fff" d="M276.4,439.2c-0.7-7.1,4.4-11.2,8.1-16.1c6.8-9,14-18.6,17.2-30.3c1.2-4.3,1-8.7,1.7-13.2
					c1-6.4,3.3-12.1,4.8-17.8c1.6-5.8,2.8-11.3,3.4-17.2c0.5-5.4,0.1-10.8,0.5-16.3c0.5-5.4-0.1-10.8-0.7-15.9
					c-1.2-10.1-3.7-20.1-6.3-30.2c-2.6-10-5.7-20.7-10.5-28.9c-2.6-4.5-6.9-10.6-10.4-15.7c-3.1-4.6-10.2-10.7-7.5-16.7
					c3.2-7.1,10.7-3.1,15.5,1.9c3.2,3.3,5.9,7.9,8.6,12c2.7,4.2,6,8.1,8.5,12c5.1,7.9,8.3,17.8,10.9,26c2.8,8.9,2.9,18,3.9,28.2
					c0.9,9.8,2.6,19.2,2.7,28.6c0,4.8-0.4,9.8-0.9,15c-0.5,5-0.8,10.1-1.3,15.1c-2.3,20.3-10,43.2-25,64.5c-2.5,3.6-6.6,9-10.2,13
					C286,441.1,281.8,444.6,276.4,439.2"/>
				<path fill="#fff" d="M170.4,190.8c5.9,2.3,0.4,8.7-2.8,10.6c-3.7,2.2-9.7,3.4-14.3,4.3c-15,2.9-27.6,5.2-42.2,12.8
					c-9.1,4.8-17.5,10.7-25.7,16.9c-8.4,6.4-15.6,14.6-24.1,21.2c-1.1,0.9-3.6,1.9-5,2.9c-2.3,1.8-4.1,4.1-6.5,5.9
					c-4.9,3.7-7.7,5.6-13.5,8.8c-5.4,2.6-5.5-7.7-2.7-11.4c2.5-3.2,8.3-8.8,10.3-10.5c7.1-6,14.8-12.8,21.2-18.2
					c14.8-12.6,27.5-24.9,43.6-32.8c4.2-2,9.4-3.1,14.7-4.4c10.3-2.5,19.1-4.9,30.3-5.9C159.1,190.6,165.7,189,170.4,190.8"/>
				<path fill="#fff" d="M120.1,276.9c1.7,2.2,4.2,0.7,5.7,0.2c5.3-1.6,11.7-2,17.7-2.9c10.8-1.6,21-7.2,32.5-8.9
					c17.6-2.6,45.3-2.7,61.9,16c2,2.2,4.1,4.2,5.5,6c8.1,10.2,9.9,25.5,7.7,38.8c-2.7,16-15.4,35-25.2,51
					c-6.1,10-12.2,19.2-18.8,27.4c-12.8,16.2-28.7,28.8-44.3,36.2c-12.6,6-24,11-37.9,13.3c-4.3,0.7-8.5,2.4-12.9,2.9
					c-13.4,1.6-27.9-1.5-42-0.1c-4.6,0.4-10.1,1.7-14-2.1c-2.5-7.6,6.8-8.7,11.4-9.9c12.3-3.4,25.7-2.5,38.7-2.2
					c16.4,0.4,33.3-7,47.9-14.7c13.5-7.1,29.1-18.6,41.3-35.7c5.9-8.2,11.6-18.1,17.8-26.9c6.2-8.8,13.3-16.8,17.5-26.4
					c6.5-14.7,9.7-27.8,4.2-37.8c-2.2-4-7.1-10.1-10.8-13.6c-11-10.3-32.4-15-44.5-11.8c-4.5,1.2-9.1,4.1-13.3,5.8
					c-8.8,3.5-17.6,7.3-27.3,9.5c-4.5,1-11.4,1.1-15.1,3.8c-4.6,3.4-8.3,8-11.7,12.5c-4.4,5.9-7.5,14.2-12.4,20.4
					c-5.3,6.7-12.8,12.7-20,17.9c-18.1,12.9-26.9,22-49.7,23.9c-3.3,0.3-5.7-15.4-1.6-16.8c7.5-2.5,14.3-4.9,21.9-8.9
					c13.6-7.3,29.3-20.8,38-36c2.6-4.5,5.1-10.6,6.4-14.9c0.8-2.9,0.6-5.8,1.4-8.6c3-11.2,12.4-23.2,21.5-28.8
					c7.4-4.5,17.3-6,26.6-8.2c9.7-2.3,17.4-5.1,27-6.9c19.4-3.8,37.5-2.3,60.2,6.2c11.8,4.4,20.6,12.2,26.9,20.5
					c11,14.5,17.2,35.3,18.1,53.9c0.2,3.1-0.3,6.7-0.8,10.2c-1.6,10-5.3,24.9-12.6,36.8c-2.5,4.1-6.5,9.4-10.3,11.2
					c-1.1,0.5-6.3,2.4-9,0.1c-4.1-3.4,2.7-11.4,5.3-16.2c11.9-21.2,15.5-38,11.2-55.8c-3-12.3-7.2-23.8-16.3-32.9
					c-3.5-3.6-7.9-7.2-12.4-9.9c-5.7-3.4-13.2-4.9-19.6-6.7c-14.9-4.4-26.5-3.5-39.5-1.6c-3.7,0.5-6.8,1.2-10.2,2.3
					c-3.1,1-6,2.9-9.4,4.1c-7.7,2.7-18,2.7-24.3,5.6C125.4,269.9,122.3,271.4,120.1,276.9"/>
				<path fill="#fff" d="M211.4,291.4c8.6,1.8,17.6,11.4,18.5,18.6c0.4,3.3-1.4,10.9-5.2,10c-3.1-0.7-3.2-3.9-4.6-5.8
					c-1-1.3-3.4-4.3-5.5-6c-4-3.2-9.1-5.3-9.8-8.2C203.9,296.1,208,291.8,211.4,291.4"/>
				<path fill="#fff" d="M200.3,296.3c-4.4,2.7-5.8,0.5-10.1,0.2c-9.5-0.6-17.1,5.8-26,9.5c-8.2,3.5-14.8,2.5-22.2,5.7
					c-6.8,2.9-13.3,8.1-20.2,13.6c-2.9,2.3-5.6,5.2-8.9,2.6c-4.8-3.8,4.6-13.7,8.2-17.1c9-8.4,15.9-13.6,26.5-16.5
					c3.9-1,8.3-1.7,12.4-3.2c8.9-3.2,15.9-8.4,23.6-9c3.7-0.3,9.6,0.3,13.4,2.1C201.4,286.4,204.3,291.1,200.3,296.3"/>
				<path fill="#fff" d="M35.2,381.8c8.1-1.2,17.1-3.7,24.6-7.5c7.5-3.8,15.2-8.4,22.4-13.9c6.2-4.7,10.8-9.5,16.9-13.9
					c6.6-4.8,14.1-8.3,21.3-13c6.8-4.5,14.3-9.5,21.6-11.8c4.3-1.4,9-1.5,13.3-3.1c12.7-4.8,22.3-13.3,35.9-12
					c19.2,1.9,31.4,20.5,25.8,35.1c-3.5,9.1-10.6,14.2-14.9,22.6c-5.1,10-9.2,18.6-15.1,26.3c-8.8,11.6-19.5,19.8-30.4,26.6
					c-10.4,6.5-24,12.1-35.9,14c-5.4,0.9-10.7,0.6-15.7,0.4c-5.2-0.2-10.5-1.4-16.2-1.2c-5.9,0.2-12.8,2.5-18.4,4.2
					c-6.1,1.8-12.5,2.6-18.5,3.8c-5.3,1-11.9,4.1-18.4,4.2c-3,0.1-3.5-13.9-1.5-13.9c17.5,0.4,17.5-2.1,32.9-7.3
					c6.3-2.1,12.5-5.1,18.3-6c10.2-1.6,20.2,2.3,30.7,1.2c13.6-1.4,27.5-8.6,39.5-16.3c12.2-7.9,25.6-19.4,33.6-34.8
					c1.5-2.9,2.1-6.2,3.7-9.1c3.4-5.9,9.7-10.3,11.8-17.3c2.3-7.8-0.3-18.6-12.2-20.2c-3.6-0.5-8.6,0.7-11.5,2.3
					c-4.6,2.5-7.7,7.4-12.6,10.3c-2.4,1.5-6,1.9-9.1,2.9c-2.9,0.9-6,1.8-8.8,3c-5.8,2.6-10.5,6.8-16.3,10.8c-5.3,3.6-10.7,7-16.6,10
					c-5.7,2.9-11.3,6.1-16.7,9.6c-5.6,3.7-10.6,7.8-16.3,10.8c-11.1,5.9-31,14.3-44.9,16.4C25.5,394.1,28.5,382.8,35.2,381.8z"/>
				<path fill="#fff" d="M292.3,385.5c3.8,1.9,1.9,7.6-1.2,12.8c-3.7,6.4-10.6,16.2-16.2,22.6c-3,3.4-8.1,8-10.9,6.4
					c-2.4-1.4-1.4-4.7,0.1-8.2c2.3-5.3,6.3-11.5,10.1-17.5C279.2,393.8,284.4,381.6,292.3,385.5"/>
				<path fill="#fff" d="M82.3,283.4c9.2,1.7-1.3,17.4-5.4,23c-8.1,10.9-16.6,16.5-26.3,21.4c-6,3.1-13.2,5.4-19.3,8.6
					c-5,2.5-10.1-12.6-4.8-15.9c11.6-7.3,25.9-13,36.3-21.4c2.7-2.2,5.7-4.9,8.3-7.4C74.1,288.8,78.8,282.8,82.3,283.4"/>
				<path fill="#fff" d="M184.6,327.7c-5.7,2-6.8,6.6-11.6,10.5c-3.9,3.1-9.2,2.6-14,3.7c-5.5,1.3-11.7,4.5-16.5,7.9
					c-4.1,2.9-7.8,6.3-11.9,9c-8.1,5.3-17.6,8.6-24.7,15.7c-3.7,3.7-7.3,7.4-11.6,10.5c-9.1,4.6-19.8,6.9-29.8,11
					c-9.7,4-20.4,8.9-30.5,9.6c-4.4,0.3-8.5,14.4,5.3,13.1c4.1-0.4,7.8-0.3,11.4-1.3c3.5-1,6.2-3.1,9.6-4.6
					c5.3-2.4,12.3-4.2,18.7-6.1c3.1-0.9,6.6-1.4,9.7-2.2c3.4-0.8,6.7-2.2,9.6-2.6c10.9-1.4,24.4,3.8,34.4,0.7
					c6.6-2,14.8-7.8,21.4-13.3c7.3-6,14.5-11.2,19.8-18.3c1.5-2.1,4-5.7,4.9-8.1c1.2-3.3-0.6-9.6,1.6-13c1.7-2.7,7.1-5.2,9.8-8.3
					c2.5-2.8,4.7-5.9,4.8-9.2C195.1,326.4,188.1,326.5,184.6,327.7z M156.6,369.6c-3.4,3.6-8.4,6.7-13.6,10.2
					c-5.4,3.6-9.8,7.1-14,8.9c-2.5,1.1-7.3,2.5-9.9,1.8c-2.2-0.6-4.2-3.1-3.9-4.4c0.8-3.5,7.5-5.3,10.4-6.7
					c7.8-3.7,13.4-8.5,20.2-14.3c4.5-3.8,8-7.9,12.2-10.2C165.9,355.4,161.2,364.6,156.6,369.6z"/>
				<path fill="#fff" d="M236.6,474c3.6-3.4,7.4-8.2,12-13.1c4.1-4.3,9.4-8.2,11.8-13.5c0.8-1.6,1.6-5.8,0.9-7.1
					c-3.2-6.7-10.7,1.3-13.3,3.7c-9.5,8.9-16.3,16.8-25.7,24.2C203.5,483.1,229.8,480.3,236.6,474z"/>
				<path fill="#fff" d="M298.1,462.9c-5.7-6.6-12.3,2.6-16.5,6.6c-1.6,1.5-3.3,2.8-5,4.3c-1.9,1.7-3.2,3.7-4.7,5.1
					c-6.6,5.9-18.1,4.3-11-1.9c2-1.8,4.2-4.3,6.1-6.5c3.6-3.9,16.8-16.9,6.9-20.5c-5.8-2.1-13.1,8.2-17.1,12.4
					c-3.7,3.9-7.2,8.6-11.4,12.7c-14.6,14.2,47.1,18.8,51.8-2.3C298,469.1,299.5,464.5,298.1,462.9z"/>
			</g>
		</g>
	</g>
</svg>
