<?xml version="1.0" encoding="utf-8"?>
<!DOCTYPE svg PUBLIC "-//W3C//DTD SVG 1.1//EN" "http://www.w3.org/Graphics/SVG/1.1/DTD/svg11.dtd">

<svg version="1.1" id="Vexcash-Icon-Check" xmlns="http://www.w3.org/2000/svg" xmlns:xlink="http://www.w3.org/1999/xlink" x="0px" y="0px" viewBox="0 0 512 512" xml:space="preserve">
	<g id="Icon-Container">
		<path id="Check" fill="#9ae054" d="M55.5,326.5c-3.9-4.1-6.9-7.6-8.9-10.5c-2.1-2.9-3.1-5.7-3.1-8.5c0-3.5,1.7-7,5.1-10.5
			c3.4-3.5,7.8-6.6,13.2-9.3c5.4-2.7,11.2-4.9,17.6-6.6c6.3-1.6,12.4-2.5,18.3-2.5c6.2,0,11.3,0.8,15.4,2.5c4,1.7,7.9,4.4,11.6,8.3
			c15,15.8,28.6,31.9,40.8,48.3c12.2,16.5,24.1,33.4,35.8,50.9c11.3-30.2,23-59.3,35.1-87.4c12.1-28.1,24.9-55.7,38.5-82.6
			c13.6-27,28.1-53.5,43.6-79.7c15.5-26.2,32.3-52.5,50.5-79c6.6-9.9,16.4-17.2,29.4-21.9c13-4.7,29.6-7,49.9-7
			c6.1,0,10.9,0.9,14.6,2.6c3.7,1.7,5.6,4.1,5.6,7c0,2.5-0.6,5.1-1.8,7.6c-1.2,2.5-2.9,5.4-5.3,8.8c-44.3,61.7-84.6,126.4-120.9,193.9
			c-36.3,67.6-67.8,138.8-94.5,213.8c-1.8,5.4-6.1,9.5-12.9,12.2c-6.9,2.7-16.9,4.1-30.2,4.1c-6.2,0-11.5-0.2-15.8-0.6
			s-7.9-1.1-10.8-2.2c-2.9-1.1-5.4-2.4-7.3-3.9s-3.6-3.5-5-5.8c-8.4-13.6-16.5-26.3-24.4-38.1c-7.9-11.8-16.1-23.2-24.6-34.3
			c-8.5-11.1-17.6-22.3-27.2-33.6C78.2,351.2,67.4,339.2,55.5,326.5z"/>
		</g>
</svg>
