<?xml version="1.0" encoding="utf-8" ?>
<!-- Generator: Vladislav Zyukin @ Vexcash AG - 2018-02-13 -->
<!DOCTYPE svg PUBLIC "-//W3C//DTD SVG 1.1//EN" "http://www.w3.org/Graphics/SVG/1.1/DTD/svg11.dtd">

<svg version="1.1" id="Logo-KreduPay-White" xmlns="http://www.w3.org/2000/svg" xmlns:xlink="http://www.w3.org/1999/xlink" x="0px" y="0px" viewBox="0 0 500 103.9" xml:space="preserve">
	<g id="Logo-Container">
		<path id="Pay" fill="#fff" d="M328,23.2h-11.5c-15.4,0-23.1,7.7-23.1,23.1v57.7h11.5v-25c3.2,1.3,7,2,11.5,2H328
			c15.4,0,23.1-7.7,23.1-23.1V46.2C351,30.9,343.3,23.2,328,23.2z M339.5,57.8c0,7.7-3.8,11.5-11.5,11.5h-11.5
			c-7.7,0-11.5-3.8-11.5-11.5V46.2c0-7.7,3.8-11.5,11.5-11.5H328c7.7,0,11.5,3.8,11.5,11.5V57.8z M393.6,23.2h-11.5
			c-15.4,0-23.1,7.7-23.1,23.1v11.5c0,15.4,7.7,23.1,23.1,23.1h34.6V46.2C416.7,30.9,409,23.2,393.6,23.2z M405.1,69.3h-23.1
			c-7.7,0-11.5-3.8-11.5-11.5V46.2c0-7.7,3.8-11.5,11.5-11.5h11.5c7.7,0,11.5,3.8,11.5,11.5V69.3z M483.3,23.2v57.7
			c0,15.4-7.7,23.1-23.1,23.1h-28.8V92.4h28.8c7.7,0,11.5-3.8,11.5-11.5v-2c-3.2,1.3-7,2-11.5,2h-11.5c-15.4,0-23.1-7.7-23.1-23.1
			V23.2h11.5v34.6c0,7.7,3.8,11.5,11.5,11.5h11.5c7.7,0,11.5-3.8,11.5-11.5V23.2H483.3z" />
		<path id="Kredu" fill="#fff" d="M58,23.2L31.8,46.2l26.1,34.6H43.4L23.1,53.9L11.5,64v16.8H0V0.1h11.5v48.5l29.1-25.5H58z
			 M62,46.2v34.6h11.5V46.2c0-7.7,3.8-11.5,11.5-11.5h11.5V23.2H85C69.7,23.2,62,30.9,62,46.2z M157.5,46.2v11.5h-46.1
			c0,7.7,3.8,11.5,11.5,11.5h28.8v11.5h-28.8c-15.4,0-23.1-7.7-23.1-23.1V46.2c0-15.4,7.7-23.1,23.1-23.1h11.5
			C149.8,23.2,157.5,30.9,157.5,46.2z M146,46.2c0-7.7-3.8-11.5-11.5-11.5h-11.5c-7.7,0-11.5,3.8-11.5,11.5H146z M209.3,0.1h11.5
			v57.7c0,15.4-7.7,23.1-23.1,23.1h-11.5c-15.4,0-23.1-7.7-23.1-23.1V46.2c0-15.4,7.7-23.1,23.1-23.1h11.5c4.5,0,8.3,0.7,11.5,2V0.1z
			 M209.3,46.2c0-7.7-3.8-11.5-11.5-11.5h-11.5c-7.7,0-11.5,3.8-11.5,11.5v11.5c0,7.7,3.8,11.5,11.5,11.5h11.5
			c7.7,0,11.5-3.8,11.5-11.5V46.2z M273.6,23.2v34.6c0,7.7-3.8,11.5-11.5,11.5h-11.5c-7.7,0-11.5-3.8-11.5-11.5V23.2h-11.5v34.6
			c0,15.4,7.7,23.1,23.1,23.1h11.5c15.4,0,23.1-7.7,23.1-23.1V23.2H273.6z" />
		<path id="Copyright" fill="#fff" d="M494.4,11.9c0-1.1-0.8-1.5-1.9-1.5c-0.5,0-0.9,0-1,0.1v3h1.1
			C493.6,13.5,494.4,12.9,494.4,11.9 M495.1,15.6c0.3,1.1,0.5,1.9,0.6,2.3h-1.1c-0.1-0.2-0.3-0.9-0.5-2c-0.2-1.1-0.7-1.6-1.6-1.6h-1
			v3.6h-1.1V9.8c0.5-0.1,1.3-0.2,2-0.2c1.1,0,1.8,0.2,2.4,0.7c0.4,0.4,0.6,0.9,0.6,1.6c0,1.1-0.7,1.8-1.5,2.1v0
			C494.5,14.2,494.9,14.7,495.1,15.6 M498,10.6c-0.5-1-1.3-1.7-2.3-2.3c-1-0.5-2-0.8-3-0.8c-1,0-2,0.3-3,0.8c-1,0.5-1.7,1.3-2.3,2.3
			c-0.5,1-0.8,2-0.8,3.1c0,1,0.2,2.1,0.8,3c0.5,1,1.3,1.7,2.3,2.3c1,0.5,2,0.8,3,0.8c1.1,0,2.1-0.3,3-0.8c1-0.5,1.7-1.3,2.3-2.3
			c0.5-1,0.8-2,0.8-3C498.8,12.6,498.5,11.6,498,10.6 M499,17.3c-0.6,1.2-1.5,2.1-2.7,2.7c-1.2,0.6-2.4,1-3.6,1c-1.3,0-2.5-0.3-3.6-1
			c-1.2-0.7-2.1-1.6-2.7-2.7c-0.7-1.1-1-2.4-1-3.6c0-1.3,0.3-2.5,1-3.7c0.7-1.2,1.6-2.1,2.7-2.7c1.2-0.6,2.4-0.9,3.6-0.9
			c1.2,0,2.4,0.3,3.6,0.9c1.2,0.6,2.1,1.5,2.7,2.7c0.7,1.2,1,2.4,1,3.7C500,15,499.7,16.2,499,17.3" />

	</g>
</svg>
